<svg xmlns="http://www.w3.org/2000/svg" width="75.001" height="70.588" viewBox="0 0 75.001 70.588">
  <path id="some" d="M72.764,39.71H40.049L61.836,61.5a2.212,2.212,0,0,0,3.059.094,33.019,33.019,0,0,0,10.082-19.42A2.21,2.21,0,0,0,72.764,39.71Zm-2.182-8.934A33.167,33.167,0,0,0,39.815.009,2.219,2.219,0,0,0,37.5,2.242v30.85H68.349A2.217,2.217,0,0,0,70.582,30.776Zm-39.7,8.934V6.995a2.209,2.209,0,0,0-2.46-2.214A33.064,33.064,0,0,0,.017,38.658,33.5,33.5,0,0,0,33.5,70.589a32.831,32.831,0,0,0,18.648-6.07,2.191,2.191,0,0,0,.216-3.32Z" transform="translate(0.002 -0.004)" fill="#ffd600" stroke="#ffd600" stroke-width="0"/>
</svg>
