<svg xmlns="http://www.w3.org/2000/svg" width="75.954" height="75.137" viewBox="0 0 75.954 75.137">
  <path id="some" d="M62.062,19.99c-6.284.077-12.8,2.456-18.786,7.376H56.2V34.3c8.472-4.777,18.4-5.072,26.323,0L79.6,35.867l10.387,8.144-.6-13.378L85.144,32.9C79.558,24.613,71.376,20.094,62.685,19.99c-.207,0-.415,0-.622,0ZM19.03,30.367V64.528H53.2V30.367H19.03Zm8.074,4.18H49.016V56.856H46.011V37.547H27.1v-3Zm.537,6.122L42.107,55.416l-2.143,2.1L25.5,42.771Zm33.182,9.915V84.749H94.984V50.584H60.823Zm8.069,4.185H90.8v22.3h-3v-19.3H68.892v-3Zm.537,6.117L83.9,75.637l-2.142,2.1L67.286,62.987l2.142-2.1ZM24.705,71.106l.6,13.377,3.743-2c9.783,14.232,27.295,17.1,41.687,5.269H57.822V80.815c-8.362,4.717-18.144,5.065-26.017.191l3.281-1.756L24.705,71.106Z" transform="translate(-19.03 -19.988)" fill="#ffd600" stroke="#ffd600" stroke-width="0"/>
</svg>
