<svg xmlns="http://www.w3.org/2000/svg" width="74.878" height="66.417" viewBox="0 0 74.878 66.417">
  <g id="some" transform="translate(0 -0.001)">
    <path id="Path_38" data-name="Path 38" d="M39.111,42.68V39.059c4.837-2.726,8.778-9.515,8.778-16.309,0-10.906,0-19.75-13.167-19.75S21.556,11.844,21.556,22.75c0,6.794,3.941,13.584,8.778,16.309V42.68C15.446,43.9,4,51.212,4,60.056H65.444C65.444,51.212,54,43.9,39.111,42.68Z" transform="translate(9.433 6.363)" fill="#ffd600" stroke="#ffd600" stroke-width="0"/>
    <path id="Path_39" data-name="Path 39" d="M22.436,54.537a41.663,41.663,0,0,1,13.7-5.512,24.872,24.872,0,0,1-2.778-4.047,25.133,25.133,0,0,1-3.186-12.061c0-5.9,0-11.473,2.1-16.033,2.036-4.424,5.7-7.167,10.92-8.194C42.032,3.446,38.943,0,30.722,0,17.556,0,17.556,8.845,17.556,19.751c0,6.794,3.941,13.584,8.778,16.309v3.621C11.446,40.9,0,48.213,0,57.057H19.131a28.151,28.151,0,0,1,3.3-2.515Z" fill="#ffd600" stroke="#ffd600" stroke-width="0"/>
  </g>
</svg>
