<svg id="svg" xmlns="http://www.w3.org/2000/svg" xmlns:xlink="http://www.w3.org/1999/xlink" width="400" height="400" viewBox="0, 0, 400,400" version="1.1"><g id="svgg"><path id="path0" d="M150.200 119.193 C 148.708 119.831,16.800 252.151,16.806 253.003 C 16.822 255.099,15.283 254.992,47.085 255.105 L 76.600 255.210 127.799 204.005 C 155.959 175.842,179.177 152.800,179.395 152.800 C 179.613 152.800,190.146 163.150,202.803 175.800 C 217.472 190.460,226.099 198.800,226.596 198.800 C 227.792 198.800,257.200 169.285,257.200 168.084 C 257.200 167.204,211.952 121.380,209.211 119.484 C 208.118 118.728,151.934 118.451,150.200 119.193 M272.800 200.790 L 221.400 251.948 217.800 248.408 C 215.820 246.462,205.590 236.349,195.067 225.935 L 175.934 207.000 174.218 207.000 L 172.502 207.000 158.051 221.172 C 144.387 234.573,143.600 235.422,143.600 236.775 C 143.600 238.333,141.536 236.205,180.215 274.503 L 192.231 286.400 221.415 286.401 L 250.600 286.402 317.300 219.687 C 365.804 171.172,384.000 152.730,384.000 152.086 C 384.000 149.477,385.501 149.598,353.300 149.617 L 324.200 149.633 272.800 200.790 " stroke="none" fill="#04a4fc" fill-rule="evenodd"></path><path id="path1" d="" stroke="none" fill="#08a4fc" fill-rule="evenodd"></path></g></svg>